{
  "accessors": [
    {
      "bufferView": 2,
      "componentType": 5126,
      "count": 1078,
      "max": [
        4.613715648651123,
        6.376629829406738,
        2.504964590072632
      ],
      "min": [
        -4.48586893081665,
        -7.035662651062012,
        -5.725937843322754
      ],
      "type": "VEC3"
    },
    {
      "bufferView": 2,
      "byteOffset": 12936,
      "componentType": 5126,
      "count": 1078,
      "max": [
        0.9984129667282104,
        0.9999420046806335,
        0.996890127658844
      ],
      "min": [
        -0.9993813037872314,
        -0.9996668696403503,
        -0.9966363906860352
      ],
      "type": "VEC3"
    },
    {
      "bufferView": 3,
      "componentType": 5126,
      "count": 1078,
      "max": [
        0.9982873201370239,
        0.9998723864555359,
        0.9997143745422363,
        1.0
      ],
      "min": [
        -0.9950476288795471,
        -0.9995984435081482,
        -0.998855471611023,
        -1.0
      ],
      "type": "VEC4"
    },
    {
      "bufferView": 1,
      "componentType": 5126,
      "count": 1078,
      "max": [
        0.99558424949646,
        0.9921717643737793
      ],
      "min": [
        0.005947948433458805,
        0.004678372293710709
      ],
      "type": "VEC2"
    },
    {
      "bufferView": 0,
      "componentType": 5125,
      "count": 5688,
      "type": "SCALAR"
    },
    {
      "bufferView": 2,
      "byteOffset": 25872,
      "componentType": 5126,
      "count": 2076,
      "max": [
        5.743277549743652,
        2.8461074829101563,
        3.353428840637207
      ],
      "min": [
        -5.30256462097168,
        -8.644367218017578,
        -7.636353492736816
      ],
      "type": "VEC3"
    },
    {
      "bufferView": 2,
      "byteOffset": 50784,
      "componentType": 5126,
      "count": 2076,
      "max": [
        0.9970789551734924,
        0.9997276067733765,
        0.999807596206665
      ],
      "min": [
        -0.9997514486312866,
        -0.999976634979248,
        -0.9998553991317749
      ],
      "type": "VEC3"
    },
    {
      "bufferView": 3,
      "byteOffset": 17248,
      "componentType": 5126,
      "count": 2076,
      "max": [
        0.9992192983627319,
        0.9999818801879883,
        0.9993957877159119,
        1.0
      ],
      "min": [
        -0.9998886585235596,
        -0.9998759031295776,
        -0.998821496963501,
        -1.0
      ],
      "type": "VEC4"
    },
    {
      "bufferView": 1,
      "byteOffset": 8624,
      "componentType": 5126,
      "count": 2076,
      "max": [
        0.9789010286331177,
        0.9824596047401428
      ],
      "min": [
        0.018410921096801758,
        0.022565484046936035
      ],
      "type": "VEC2"
    },
    {
      "bufferView": 0,
      "byteOffset": 22752,
      "componentType": 5125,
      "count": 9972,
      "type": "SCALAR"
    },
    {
      "bufferView": 2,
      "byteOffset": 75696,
      "componentType": 5126,
      "count": 16,
      "max": [
        -2.3514809608459473,
        2.4857475757598877,
        3.1404762268066406
      ],
      "min": [
        -5.133073329925537,
        1.0335121154785156,
        -0.46972155570983887
      ],
      "type": "VEC3"
    },
    {
      "bufferView": 2,
      "byteOffset": 75888,
      "componentType": 5126,
      "count": 16,
      "max": [
        -0.7508656978607178,
        -0.1921115219593048,
        0.6318835616111755
      ],
      "min": [
        -0.8141932487487793,
        -0.19571293890476227,
        0.5478891730308533
      ],
      "type": "VEC3"
    },
    {
      "bufferView": 1,
      "byteOffset": 25232,
      "componentType": 5126,
      "count": 16,
      "max": [
        0.9787067174911499,
        0.40843597054481506
      ],
      "min": [
        0.828220009803772,
        0.22486448287963867
      ],
      "type": "VEC2"
    },
    {
      "bufferView": 0,
      "byteOffset": 62640,
      "componentType": 5125,
      "count": 36,
      "type": "SCALAR"
    },
    {
      "bufferView": 2,
      "byteOffset": 76080,
      "componentType": 5126,
      "count": 201,
      "max": [
        -4.305788516998291,
        1.5732691287994385,
        0.9864692091941833
      ],
      "min": [
        -6.188790798187256,
        0.09422475099563599,
        -0.9776787757873535
      ],
      "type": "VEC3"
    },
    {
      "bufferView": 2,
      "byteOffset": 78492,
      "componentType": 5126,
      "count": 201,
      "max": [
        0.8465558290481567,
        0.9975641965866089,
        0.9885331988334656
      ],
      "min": [
        -0.9975606203079224,
        -0.41190245747566223,
        -0.9600756764411926
      ],
      "type": "VEC3"
    },
    {
      "bufferView": 3,
      "byteOffset": 50464,
      "componentType": 5126,
      "count": 201,
      "max": [
        0.9996543526649475,
        0.9973937273025513,
        0.5239911079406738,
        1.0
      ],
      "min": [
        -0.3848843276500702,
        -0.832323431968689,
        -0.46142834424972534,
        1.0
      ],
      "type": "VEC4"
    },
    {
      "bufferView": 1,
      "byteOffset": 25360,
      "componentType": 5126,
      "count": 201,
      "max": [
        0.9814439415931702,
        0.2752291262149811
      ],
      "min": [
        0.7244644165039063,
        0.01825001835823059
      ],
      "type": "VEC2"
    },
    {
      "bufferView": 0,
      "byteOffset": 62784,
      "componentType": 5125,
      "count": 1140,
      "type": "SCALAR"
    },
    {
      "bufferView": 2,
      "byteOffset": 80904,
      "componentType": 5126,
      "count": 201,
      "max": [
        1.4983172416687012,
        3.2570993900299072,
        1.6462398767471313
      ],
      "min": [
        -0.2968308925628662,
        1.6372933387756348,
        -0.32954251766204834
      ],
      "type": "VEC3"
    },
    {
      "bufferView": 2,
      "byteOffset": 83316,
      "componentType": 5126,
      "count": 201,
      "max": [
        0.9957485198974609,
        0.9973761439323425,
        0.9976416230201721
      ],
      "min": [
        -0.7501662373542786,
        -0.561836838722229,
        -0.9590935111045837
      ],
      "type": "VEC3"
    },
    {
      "bufferView": 3,
      "byteOffset": 53680,
      "componentType": 5126,
      "count": 201,
      "max": [
        0.5242641568183899,
        0.9977207183837891,
        0.6020428538322449,
        -1.0
      ],
      "min": [
        -0.9998236894607544,
        -0.7395182251930237,
        -0.44542545080184937,
        -1.0
      ],
      "type": "VEC4"
    },
    {
      "bufferView": 1,
      "byteOffset": 26968,
      "componentType": 5126,
      "count": 201,
      "max": [
        0.9814439415931702,
        0.2752291262149811
      ],
      "min": [
        0.7244644165039063,
        0.01825001835823059
      ],
      "type": "VEC2"
    },
    {
      "bufferView": 0,
      "byteOffset": 67344,
      "componentType": 5125,
      "count": 1140,
      "type": "SCALAR"
    },
    {
      "bufferView": 2,
      "byteOffset": 85728,
      "componentType": 5126,
      "count": 4,
      "max": [
        1.8697959184646606,
        -2.485150098800659,
        9.909873008728027
      ],
      "min": [
        1.1764551401138306,
        -7.487524032592773,
        2.215153932571411
      ],
      "type": "VEC3"
    },
    {
      "bufferView": 2,
      "byteOffset": 85776,
      "componentType": 5126,
      "count": 4,
      "max": [
        -0.9959650635719299,
        0.0,
        0.08974248915910721
      ],
      "min": [
        -0.9959650635719299,
        0.0,
        0.08974248915910721
      ],
      "type": "VEC3"
    },
    {
      "bufferView": 1,
      "byteOffset": 28576,
      "componentType": 5126,
      "count": 4,
      "max": [
        0.8535241484642029,
        0.3679715692996979
      ],
      "min": [
        0.5028951168060303,
        0.14574182033538818
      ],
      "type": "VEC2"
    },
    {
      "bufferView": 1,
      "byteOffset": 28608,
      "componentType": 5126,
      "count": 4,
      "max": [
        0.8535241484642029,
        0.3679715692996979
      ],
      "min": [
        0.5028951168060303,
        0.14574182033538818
      ],
      "type": "VEC2"
    },
    {
      "bufferView": 0,
      "byteOffset": 71904,
      "componentType": 5125,
      "count": 6,
      "type": "SCALAR"
    },
    {
      "bufferView": 2,
      "byteOffset": 85824,
      "componentType": 5126,
      "count": 26,
      "max": [
        70.67971801757813,
        17.872718811035156,
        18.127338409423828
      ],
      "min": [
        51.53400421142578,
        -18.924720764160156,
        -38.93324661254883
      ],
      "type": "VEC3"
    },
    {
      "bufferView": 2,
      "byteOffset": 86136,
      "componentType": 5126,
      "count": 26,
      "max": [
        -0.14816807210445404,
        0.0,
        0.9889622926712036
      ],
      "min": [
        -0.997866690158844,
        0.0,
        -0.9612259268760681
      ],
      "type": "VEC3"
    },
    {
      "bufferView": 1,
      "byteOffset": 28640,
      "componentType": 5126,
      "count": 26,
      "max": [
        0.9789403676986694,
        0.9598913192749023
      ],
      "min": [
        0.015995435416698456,
        0.4744357466697693
      ],
      "type": "VEC2"
    },
    {
      "bufferView": 1,
      "byteOffset": 28848,
      "componentType": 5126,
      "count": 26,
      "max": [
        0.9789403676986694,
        0.9598913192749023
      ],
      "min": [
        0.015995435416698456,
        0.4744357466697693
      ],
      "type": "VEC2"
    },
    {
      "bufferView": 0,
      "byteOffset": 71928,
      "componentType": 5125,
      "count": 72,
      "type": "SCALAR"
    }
  ],
  "asset": {
    "extras": {
      "author": "brain3ater (https://sketchfab.com/brain3ater)",
      "license": "SKETCHFAB Standard (https://sketchfab.com/licenses)",
      "source": "https://sketchfab.com/3d-models/walter-white-930eb8fd5e3c4301a5fd7d458dc35527",
      "title": "Walter White"
    },
    "generator": "Sketchfab-15.56.0",
    "version": "2.0"
  },
  "bufferViews": [
    {
      "buffer": 0,
      "byteLength": 72216,
      "name": "floatBufferViews",
      "target": 34963
    },
    {
      "buffer": 0,
      "byteLength": 29056,
      "byteOffset": 72216,
      "byteStride": 8,
      "name": "floatBufferViews",
      "target": 34962
    },
    {
      "buffer": 0,
      "byteLength": 86448,
      "byteOffset": 101272,
      "byteStride": 12,
      "name": "floatBufferViews",
      "target": 34962
    },
    {
      "buffer": 0,
      "byteLength": 56896,
      "byteOffset": 187720,
      "byteStride": 16,
      "name": "floatBufferViews",
      "target": 34962
    }
  ],
  "buffers": [
    {
      "byteLength": 244616,
      "uri": "scene.bin"
    }
  ],
  "extensionsUsed": [
    "KHR_materials_specular",
    "KHR_materials_emissive_strength"
  ],
  "images": [
    {
      "uri": "textures/walter_white_head_MAT_baseColor.png"
    },
    {
      "uri": "textures/walter_white_head_MAT_metallicRoughness.png"
    },
    {
      "uri": "textures/walter_white_head_MAT_normal.png"
    },
    {
      "uri": "textures/walter_white_accessories_MAT_baseColor.png"
    },
    {
      "uri": "textures/walter_white_accessories_MAT_metallicRoughness.png"
    },
    {
      "uri": "textures/walter_white_accessories_MAT_normal.png"
    },
    {
      "uri": "textures/walter_white_glass_MAT_baseColor.png"
    },
    {
      "uri": "textures/walter_white_bg_MAT_baseColor.png"
    },
    {
      "uri": "textures/walter_white_bg_MAT_emissive.png"
    }
  ],
  "materials": [
    {
      "doubleSided": true,
      "extensions": {
        "KHR_materials_specular": {
          "specularColorFactor": [
            1.0,
            1.0,
            1.0
          ],
          "specularFactor": 0.47911554955878805
        }
      },
      "name": "walter_white_head_MAT",
      "normalTexture": {
        "index": 2
      },
      "occlusionTexture": {
        "index": 1
      },
      "pbrMetallicRoughness": {
        "baseColorTexture": {
          "index": 0
        },
        "metallicFactor": 0.0,
        "metallicRoughnessTexture": {
          "index": 1
        },
        "roughnessFactor": 0.9124863579523641
      }
    },
    {
      "doubleSided": true,
      "name": "walter_white_accessories_MAT",
      "normalTexture": {
        "index": 5
      },
      "occlusionTexture": {
        "index": 4
      },
      "pbrMetallicRoughness": {
        "baseColorTexture": {
          "index": 3
        },
        "metallicFactor": 0.0,
        "metallicRoughnessTexture": {
          "index": 4
        }
      }
    },
    {
      "alphaMode": "BLEND",
      "doubleSided": true,
      "extensions": {
        "KHR_materials_specular": {
          "specularColorFactor": [
            1.0,
            1.0,
            1.0
          ],
          "specularFactor": 1.0
        }
      },
      "name": "walter_white_glass_MAT",
      "pbrMetallicRoughness": {
        "baseColorFactor": [
          1.0,
          1.0,
          1.0,
          0.07086768657933237
        ],
        "baseColorTexture": {
          "index": 6
        },
        "metallicFactor": 0.0,
        "roughnessFactor": 0.0
      }
    },
    {
      "alphaMode": "BLEND",
      "doubleSided": true,
      "emissiveFactor": [
        1.0,
        1.0,
        1.0
      ],
      "emissiveTexture": {
        "index": 8
      },
      "extensions": {
        "KHR_materials_emissive_strength": {
          "emissiveStrength": 1.42
        },
        "KHR_materials_specular": {
          "specularColorFactor": [
            1.0,
            1.0,
            1.0
          ],
          "specularFactor": 0.1085521047
        }
      },
      "name": "walter_white_bg_MAT",
      "pbrMetallicRoughness": {
        "baseColorTexture": {
          "index": 7
        },
        "metallicFactor": 0.0
      }
    }
  ],
  "meshes": [
    {
      "name": "walter_low_walter_white_head_MAT_0",
      "primitives": [
        {
          "attributes": {
            "NORMAL": 1,
            "POSITION": 0,
            "TANGENT": 2,
            "TEXCOORD_0": 3
          },
          "indices": 4,
          "material": 0,
          "mode": 4
        }
      ]
    },
    {
      "name": "walter_low_walter_white_accessories_MAT_0",
      "primitives": [
        {
          "attributes": {
            "NORMAL": 6,
            "POSITION": 5,
            "TANGENT": 7,
            "TEXCOORD_0": 8
          },
          "indices": 9,
          "material": 1,
          "mode": 4
        }
      ]
    },
    {
      "name": "glass_walter_white_glass_MAT_0",
      "primitives": [
        {
          "attributes": {
            "NORMAL": 11,
            "POSITION": 10,
            "TEXCOORD_0": 12
          },
          "indices": 13,
          "material": 2,
          "mode": 4
        }
      ]
    },
    {
      "name": "eye_left_walter_white_head_MAT_0",
      "primitives": [
        {
          "attributes": {
            "NORMAL": 15,
            "POSITION": 14,
            "TANGENT": 16,
            "TEXCOORD_0": 17
          },
          "indices": 18,
          "material": 0,
          "mode": 4
        }
      ]
    },
    {
      "name": "eye_right_walter_white_head_MAT_0",
      "primitives": [
        {
          "attributes": {
            "NORMAL": 20,
            "POSITION": 19,
            "TANGENT": 21,
            "TEXCOORD_0": 22
          },
          "indices": 23,
          "material": 0,
          "mode": 4
        }
      ]
    },
    {
      "name": "icon_walter_white_bg_MAT_0",
      "primitives": [
        {
          "attributes": {
            "NORMAL": 25,
            "POSITION": 24,
            "TEXCOORD_0": 26,
            "TEXCOORD_1": 27
          },
          "indices": 28,
          "material": 3,
          "mode": 4
        }
      ]
    },
    {
      "name": "bg_glow_walter_white_bg_MAT_0",
      "primitives": [
        {
          "attributes": {
            "NORMAL": 30,
            "POSITION": 29,
            "TEXCOORD_0": 31,
            "TEXCOORD_1": 32
          },
          "indices": 33,
          "material": 3,
          "mode": 4
        }
      ]
    }
  ],
  "nodes": [
    {
      "children": [
        1
      ],
      "matrix": [
        0.0,
        2.220446049250313e-16,
        -1.0,
        0.0,
        -1.0,
        0.0,
        0.0,
        0.0,
        0.0,
        1.0,
        2.220446049250313e-16,
        0.0,
        0.0,
        0.0,
        0.0,
        1.0
      ],
      "name": "Sketchfab_model"
    },
    {
      "children": [
        2
      ],
      "matrix": [
        1.0,
        0.0,
        0.0,
        0.0,
        0.0,
        0.0,
        1.0,
        0.0,
        0.0,
        -1.0,
        0.0,
        0.0,
        0.0,
        0.0,
        0.0,
        1.0
      ],
      "name": "2e71ac66aed74fb4b8ec8a465b85e21b.fbx"
    },
    {
      "children": [
        3
      ],
      "name": "RootNode"
    },
    {
      "children": [
        4,
        5,
        6,
        8,
        10,
        12
      ],
      "name": "walter_low"
    },
    {
      "mesh": 0,
      "name": "walter_low_walter_white_head_MAT_0"
    },
    {
      "mesh": 1,
      "name": "walter_low_walter_white_accessories_MAT_0"
    },
    {
      "children": [
        7
      ],
      "name": "glass"
    },
    {
      "mesh": 2,
      "name": "glass_walter_white_glass_MAT_0"
    },
    {
      "children": [
        9
      ],
      "matrix": [
        0.38673963002290146,
        -0.05859408880596743,
        0.5237233723205629,
        0.0,
        -0.5051667208564714,
        0.14379175852165,
        0.38912400813679776,
        0.0,
        -0.15008671525802822,
        -0.6349627093982174,
        0.039790890475153495,
        0.0,
        -1.1292717456817627,
        1.6234333515167236,
        2.2934188842773438,
        1.0
      ],
      "name": "eye_left"
    },
    {
      "mesh": 3,
      "name": "eye_left_walter_white_head_MAT_0"
    },
    {
      "children": [
        11
      ],
      "matrix": [
        -0.06380161367695511,
        -0.06944838717330737,
        0.6468332513092676,
        0.0,
        -0.6068940143283945,
        0.2404316628282891,
        -0.0340477645384462,
        0.0,
        -0.23429893054100384,
        -0.603867962734177,
        -0.08794585901957834,
        0.0,
        -0.6842126250267029,
        1.8780828714370728,
        1.200270175933838,
        1.0
      ],
      "name": "eye_right"
    },
    {
      "mesh": 4,
      "name": "eye_right_walter_white_head_MAT_0"
    },
    {
      "children": [
        13,
        15
      ],
      "name": "bg"
    },
    {
      "children": [
        14
      ],
      "name": "icon"
    },
    {
      "mesh": 5,
      "name": "icon_walter_white_bg_MAT_0"
    },
    {
      "children": [
        16
      ],
      "name": "bg_glow"
    },
    {
      "mesh": 6,
      "name": "bg_glow_walter_white_bg_MAT_0"
    }
  ],
  "samplers": [
    {
      "magFilter": 9729,
      "minFilter": 9987,
      "wrapS": 10497,
      "wrapT": 10497
    }
  ],
  "scene": 0,
  "scenes": [
    {
      "name": "Sketchfab_Scene",
      "nodes": [
        0
      ]
    }
  ],
  "textures": [
    {
      "sampler": 0,
      "source": 0
    },
    {
      "sampler": 0,
      "source": 1
    },
    {
      "sampler": 0,
      "source": 2
    },
    {
      "sampler": 0,
      "source": 3
    },
    {
      "sampler": 0,
      "source": 4
    },
    {
      "sampler": 0,
      "source": 5
    },
    {
      "sampler": 0,
      "source": 6
    },
    {
      "sampler": 0,
      "source": 7
    },
    {
      "sampler": 0,
      "source": 8
    }
  ]
}
